<?xml version="1.0" encoding="UTF-8" standalone="no"?>
<!DOCTYPE svg PUBLIC "-//W3C//DTD SVG 1.1//EN"
        "http://www.w3.org/Graphics/SVG/1.1/DTD/svg11.dtd">
<svg version="1.1"
     baseProfile="full"
     xmlns="http://www.w3.org/2000/svg"
     xmlns:xlink="http://www.w3.org/1999/xlink"
     xmlns:ev="http://www.w3.org/2001/xml-events"
     width="1000px" height="1000px">

    <polyline fill="#1e8a8d" points="975,400
                                     958.125,445 850,445 850,455 954.375,455
                                     939.375,495 850,495 850,505 935.625,505
                                     920.625,545 850,545 850,555 916.875,555
                                     900,600
                                     100,600
                                     83.125,555 150,555 150,545 79.375,545
                                     64.375,505 150,505 150,495 60.625,495
                                     45.625,455 150,455 150,445 41.875,445
                                     25,400"/>

    <circle cx="500" cy="500" r="300"
            fill="#3da3a7"/>

    <polyline fill="#1e8a8d" points="400,625 400,410 500,447.5 600,410 600,625
                                     575,625 575,445 500,473.125 425,445 425,625" />

    <g fill="white">

        <polyline points="375,625 375,400 400,409.375 400,625" />
        <polyline points="625,625 625,400 600,409.375 600,625" />


        <polyline points="400,409.375 500,446.875 600,409.375
                          600,384.375 500,421.875 400,384.375" />
    </g>


    <g fill="#1e8a8d">
        <polyline points="400,409.375 375,400 375,375 400,384.375" />
        <polyline points="600,409.375 625,400 625,375 600,384.375" />
    </g>

    <!--
    <g fill="none" stroke="green" stroke-width="1">

        <line x1="1000" y1="610" x2="0" y2="235"/>
        <line x1="1000" y1="635" x2="0" y2="260"/>
        <line x1="1000" y1="660" x2="0" y2="285"/>

        <line x1="1000" y1="235" x2="0" y2="610"/>
        <line x1="1000" y1="260" x2="0" y2="635"/>
        <line x1="1000" y1="285" x2="0" y2="660"/>

        <line x1="400" y1="0" x2="400" y2="1000"/>
        <line x1="425" y1="0" x2="425" y2="1000"/>

        <line x1="600" y1="0" x2="600" y2="1000"/>
        <line x1="575" y1="0" x2="575" y2="1000"/>

        <line x1="0" y1="375" x2="1000" y2="375"/>
        <line x1="375" y1="0" x2="375" y2="1000"/>
        <line x1="0" y1="625" x2="1000" y2="625"/>
        <line x1="625" y1="0" x2="625" y2="1000"/>
    </g>
    -->

    <circle cx="500" cy="500" r="275"
            fill="none" stroke="#1e8a8d" stroke-width="50"/>
</svg>
